<mxfile host="drawio-plugin" modified="2023-07-21T12:26:11.614Z" agent="5.0 (Windows NT 6.2; Win64; x64) AppleWebKit/537.36 (KHTML, like Gecko) Chrome/104.0.5112.102 Safari/537.36" etag="TzQW4p4cPqMlGdWgdj9z" version="20.5.3" type="embed"><diagram id="23iRSUPoRavnBvh4doch" name="Page-1"><mxGraphModel dx="1321" dy="778" grid="1" gridSize="10" guides="1" tooltips="1" connect="1" arrows="1" fold="1" page="1" pageScale="1" pageWidth="827" pageHeight="1169" math="0" shadow="0"><root><mxCell id="0"/><mxCell id="1" parent="0"/><mxCell id="20" value="" style="aspect=fixed;perimeter=ellipsePerimeter;html=1;align=center;shadow=0;dashed=0;spacingTop=3;image;image=img/lib/active_directory/internet_cloud.svg;" parent="1" vertex="1"><mxGeometry y="10" width="619.05" height="390" as="geometry"/></mxCell><mxCell id="28" style="edgeStyle=orthogonalEdgeStyle;rounded=0;orthogonalLoop=1;jettySize=auto;html=1;entryX=0;entryY=0.444;entryDx=0;entryDy=0;entryPerimeter=0;strokeColor=#001DBC;fontColor=#CCCCCC;startArrow=none;startFill=0;fillColor=#0050ef;" parent="1" source="6" target="24" edge="1"><mxGeometry relative="1" as="geometry"><Array as="points"><mxPoint x="490" y="220"/><mxPoint x="490" y="60"/></Array></mxGeometry></mxCell><mxCell id="32" style="edgeStyle=orthogonalEdgeStyle;rounded=0;orthogonalLoop=1;jettySize=auto;html=1;entryX=0.009;entryY=0.585;entryDx=0;entryDy=0;entryPerimeter=0;strokeColor=#001DBC;fontColor=#CCCCCC;startArrow=none;startFill=0;fillColor=#0050ef;" parent="1" source="6" target="25" edge="1"><mxGeometry relative="1" as="geometry"/></mxCell><mxCell id="40" style="edgeStyle=orthogonalEdgeStyle;rounded=0;orthogonalLoop=1;jettySize=auto;html=1;strokeColor=#001DBC;fillColor=#0050ef;" parent="1" source="6" target="9" edge="1"><mxGeometry relative="1" as="geometry"><Array as="points"><mxPoint x="390" y="110"/></Array></mxGeometry></mxCell><mxCell id="6" value="&lt;font color=&quot;#000000&quot;&gt;Saas SMS Gateway&lt;br&gt;(Twillio / Messagebird)&lt;/font&gt;" style="outlineConnect=0;dashed=0;verticalLabelPosition=bottom;verticalAlign=top;align=center;html=1;shape=mxgraph.aws3.internet_gateway;fillColor=#F58536;gradientColor=none;" parent="1" vertex="1"><mxGeometry x="335" y="170" width="110" height="100" as="geometry"/></mxCell><mxCell id="14" style="edgeStyle=orthogonalEdgeStyle;rounded=0;orthogonalLoop=1;jettySize=auto;html=1;entryX=0.519;entryY=-0.073;entryDx=0;entryDy=0;entryPerimeter=0;startArrow=none;startFill=0;strokeColor=#001DBC;fillColor=#0050ef;" parent="1" source="9" target="13" edge="1"><mxGeometry relative="1" as="geometry"/></mxCell><mxCell id="9" value="" style="aspect=fixed;html=1;points=[];align=center;image;fontSize=12;image=img/lib/azure2/compute/Function_Apps.svg;" parent="1" vertex="1"><mxGeometry x="160" y="70" width="90.67" height="80" as="geometry"/></mxCell><mxCell id="36" style="edgeStyle=orthogonalEdgeStyle;rounded=0;orthogonalLoop=1;jettySize=auto;html=1;strokeColor=#001DBC;fontColor=#CCCCCC;startArrow=none;startFill=0;fillColor=#0050ef;" parent="1" source="13" target="35" edge="1"><mxGeometry relative="1" as="geometry"><Array as="points"><mxPoint x="100" y="520"/></Array></mxGeometry></mxCell><mxCell id="13" value="" style="sketch=0;aspect=fixed;html=1;points=[];align=center;image;fontSize=12;image=img/lib/mscae/Service_Bus.svg;" parent="1" vertex="1"><mxGeometry x="70" y="230" width="60" height="60" as="geometry"/></mxCell><mxCell id="22" value="Azure Service bus" style="edgeLabel;html=1;align=center;verticalAlign=middle;resizable=0;points=[];labelBackgroundColor=none;fontColor=#000000;" parent="1" vertex="1" connectable="0"><mxGeometry x="100" y="300" as="geometry"/></mxCell><mxCell id="23" value="For each received SMS response,&lt;br&gt;SMS gateway calls webhook to process response" style="edgeLabel;html=1;align=center;verticalAlign=middle;resizable=0;points=[];labelBackgroundColor=none;fontColor=#000000;" parent="1" vertex="1" connectable="0"><mxGeometry x="380" y="85" as="geometry"/></mxCell><mxCell id="24" value="&lt;font color=&quot;#cccccc&quot;&gt;Parking barrier front&lt;/font&gt;" style="verticalLabelPosition=bottom;html=1;verticalAlign=top;align=center;strokeColor=none;fillColor=#00BEF2;shape=mxgraph.azure.automation;pointerEvents=1;labelBackgroundColor=none;fontColor=#66FF66;" parent="1" vertex="1"><mxGeometry x="710" y="40" width="50" height="45" as="geometry"/></mxCell><mxCell id="25" value="&lt;font color=&quot;#cccccc&quot;&gt;Parking barrier front&lt;/font&gt;" style="verticalLabelPosition=bottom;html=1;verticalAlign=top;align=center;strokeColor=none;fillColor=#00BEF2;shape=mxgraph.azure.automation;pointerEvents=1;labelBackgroundColor=none;fontColor=#66FF66;" parent="1" vertex="1"><mxGeometry x="710" y="140" width="50" height="45" as="geometry"/></mxCell><mxCell id="33" value="" style="dashed=0;outlineConnect=0;html=1;align=center;labelPosition=center;verticalLabelPosition=bottom;verticalAlign=top;shape=mxgraph.webicons.sms;fillColor=#86D466;gradientColor=#42B418;labelBackgroundColor=none;fontColor=#CCCCCC;" parent="1" vertex="1"><mxGeometry x="590" y="40" width="50" height="44.5" as="geometry"/></mxCell><mxCell id="37" value="" style="group" parent="1" vertex="1" connectable="0"><mxGeometry x="303.92999999999995" y="460" width="172.15" height="160" as="geometry"/></mxCell><mxCell id="35" value="" style="aspect=fixed;html=1;points=[];align=center;image;fontSize=12;image=img/lib/azure2/management_governance/Managed_Desktop.svg;labelBackgroundColor=none;fontColor=#CCCCCC;" parent="37" vertex="1"><mxGeometry width="172.15" height="160" as="geometry"/></mxCell><mxCell id="2" value="SQLite" style="aspect=fixed;perimeter=ellipsePerimeter;html=1;align=center;shadow=0;dashed=0;spacingTop=3;image;image=img/lib/active_directory/database.svg;" parent="37" vertex="1"><mxGeometry x="112.33000000000001" y="47" width="50" height="37" as="geometry"/></mxCell><mxCell id="38" style="edgeStyle=orthogonalEdgeStyle;rounded=0;orthogonalLoop=1;jettySize=auto;html=1;strokeColor=#001DBC;fontColor=#CCCCCC;startArrow=none;startFill=0;fillColor=#0050ef;" parent="1" source="35" target="6" edge="1"><mxGeometry relative="1" as="geometry"/></mxCell><mxCell id="39" value="Azure function puts response&lt;br&gt;on service bus" style="edgeLabel;html=1;align=center;verticalAlign=middle;resizable=0;points=[];labelBackgroundColor=none;fontColor=#000000;" parent="1" vertex="1" connectable="0"><mxGeometry x="205.33000000000024" y="167.75" as="geometry"/></mxCell><mxCell id="41" value="" style="dashed=0;outlineConnect=0;html=1;align=center;labelPosition=center;verticalLabelPosition=bottom;verticalAlign=top;shape=mxgraph.webicons.sms;fillColor=#86D466;gradientColor=#42B418;labelBackgroundColor=none;fontColor=#CCCCCC;" parent="1" vertex="1"><mxGeometry x="630" y="145.5" width="50" height="44.5" as="geometry"/></mxCell><mxCell id="42" value="&lt;font color=&quot;#ffffff&quot;&gt;Client retrieves&amp;nbsp;&lt;br&gt;responses from service bus&lt;br&gt;&lt;/font&gt;" style="edgeLabel;html=1;align=center;verticalAlign=middle;resizable=0;points=[];labelBackgroundColor=none;fontColor=#000000;" parent="1" vertex="1" connectable="0"><mxGeometry x="180.00000000000023" y="450" as="geometry"/></mxCell><mxCell id="43" value="&lt;font color=&quot;#ffffff&quot;&gt;Client calls SMS Gateway&lt;br&gt;to send SMS&lt;br&gt;&lt;/font&gt;" style="edgeLabel;html=1;align=center;verticalAlign=middle;resizable=0;points=[];labelBackgroundColor=none;fontColor=#000000;" parent="1" vertex="1" connectable="0"><mxGeometry x="205.33000000000024" y="470" as="geometry"><mxPoint x="249" y="-49" as="offset"/></mxGeometry></mxCell></root></mxGraphModel></diagram></mxfile>